<svg width="83" height="60" viewBox="0 0 83 60" fill="none" xmlns="http://www.w3.org/2000/svg">
<path d="M82 30C82 46.0163 69.0163 59 53 59C36.9837 59 24 46.0163 24 30C24 13.9837 36.9837 1 53 1C69.0163 1 82 13.9837 82 30Z" fill="#E2E8EF" stroke="white" stroke-width="2"/>
<g clip-path="url(#clip0_2_17)">
<path d="M41.7029 43.1339C38.051 39.3658 38.1191 33.2894 41.7895 29.5351L54.8995 16.125C57.6693 13.2918 62.1714 13.2915 64.9414 16.125C67.6846 18.9309 67.6879 23.4581 64.9414 26.2673L53.5134 37.9455C51.6474 39.8541 48.5988 39.8274 46.7645 37.8831C44.9973 36.01 45.054 33.0411 46.8553 31.1986L55.8392 22.0214C56.2256 21.6268 56.8587 21.62 57.2533 22.0063L58.6821 23.405C59.0768 23.7914 59.0835 24.4245 58.6972 24.8191L49.7142 33.9954C49.4059 34.3108 49.3869 34.8347 49.6737 35.1387C49.9469 35.4283 50.3765 35.4331 50.6542 35.149L62.0823 23.4708C63.3081 22.2169 63.3081 20.1755 62.0816 18.9209C60.8823 17.6943 58.9593 17.6936 57.7594 18.9209L44.6494 32.3309C42.4767 34.5534 42.4432 38.1509 44.5749 40.3505C46.7006 42.5438 50.1365 42.5466 52.2661 40.3684L63.0198 29.3684C63.4059 28.9735 64.039 28.9664 64.4339 29.3524L65.8638 30.7502C66.2587 31.1362 66.2659 31.7694 65.8798 32.1643L55.126 43.1642C51.4025 46.9728 45.3796 46.9277 41.7029 43.1339Z" fill="#4C6586"/>
</g>
<defs>
<clipPath id="clip0_2_17">
<rect width="28" height="32" fill="white" transform="translate(39 14)"/>
</clipPath>
</defs>
</svg>
