<svg width="83" height="60" viewBox="0 0 83 60" fill="none" xmlns="http://www.w3.org/2000/svg">
<path d="M82 30C82 46.0163 69.0163 59 53 59C36.9837 59 24 46.0163 24 30C24 13.9837 36.9837 1 53 1C69.0163 1 82 13.9837 82 30Z" fill="#E2E8EF" stroke="white" stroke-width="2"/>
<circle cx="53.5" cy="30.5" r="8.5" fill="white"/>
<path d="M68.5597 29.2016C65.594 23.4151 59.7227 19.5 53 19.5C46.2773 19.5 40.4044 23.4178 37.4403 29.2021C37.3152 29.4496 37.25 29.723 37.25 30.0003C37.25 30.2775 37.3152 30.551 37.4403 30.7984C40.406 36.5849 46.2773 40.5 53 40.5C59.7227 40.5 65.5956 36.5822 68.5597 30.7979C68.6848 30.5504 68.75 30.277 68.75 29.9997C68.75 29.7225 68.6848 29.449 68.5597 29.2016ZM53 37.875C51.4424 37.875 49.9199 37.4132 48.6249 36.5478C47.3298 35.6825 46.3205 34.4526 45.7244 33.0136C45.1284 31.5747 44.9725 29.9912 45.2763 28.4637C45.5802 26.9361 46.3302 25.5329 47.4316 24.4316C48.5329 23.3302 49.9361 22.5802 51.4637 22.2763C52.9913 21.9725 54.5747 22.1284 56.0136 22.7244C57.4526 23.3205 58.6825 24.3298 59.5478 25.6249C60.4131 26.9199 60.875 28.4424 60.875 30C60.8755 31.0343 60.6722 32.0585 60.2766 33.0142C59.881 33.9699 59.3009 34.8382 58.5696 35.5696C57.8382 36.3009 56.9699 36.881 56.0142 37.2766C55.0586 37.6722 54.0343 37.8755 53 37.875ZM53 24.75C52.5314 24.7566 52.0658 24.8263 51.6159 24.9573C51.9868 25.4613 52.1648 26.0816 52.1176 26.7056C52.0703 27.3296 51.801 27.916 51.3586 28.3586C50.916 28.8011 50.3296 29.0703 49.7056 29.1176C49.0816 29.1648 48.4613 28.9868 47.9573 28.6159C47.6703 29.6733 47.7221 30.7941 48.1054 31.8205C48.4888 32.847 49.1843 33.7274 50.0942 34.3378C51.0041 34.9482 52.0826 35.2579 53.1777 35.2233C54.2729 35.1887 55.3296 34.8116 56.1992 34.1449C57.0687 33.4783 57.7073 32.5558 58.0251 31.5072C58.3429 30.4586 58.3239 29.3368 57.9707 28.2995C57.6175 27.2623 56.9479 26.362 56.0563 25.7252C55.1646 25.0885 54.0957 24.7474 53 24.75Z" fill="#4C6586"/>
</svg>
