<svg width="83" height="60" viewBox="0 0 83 60" fill="none" xmlns="http://www.w3.org/2000/svg">
<path d="M82 30C82 46.0163 69.0163 59 53 59C36.9837 59 24 46.0163 24 30C24 13.9837 36.9837 1 53 1C69.0163 1 82 13.9837 82 30Z" fill="#E2E8EF" stroke="white" stroke-width="2"/>
<ellipse cx="53.5" cy="31" rx="8.5" ry="11" fill="white"/>
<g clip-path="url(#clip0_4_39)">
<path d="M70.5948 39.5008C71.7484 41.5004 70.3004 44 67.9963 44H38.0034C35.6948 44 34.2534 41.4966 35.4048 39.5008L50.4014 13.4991C51.5556 11.4985 54.4464 11.5021 55.5986 13.4991L70.5948 39.5008ZM53 34.125C51.4122 34.125 50.125 35.4122 50.125 37C50.125 38.5878 51.4122 39.875 53 39.875C54.5878 39.875 55.875 38.5878 55.875 37C55.875 35.4122 54.5878 34.125 53 34.125ZM50.2704 23.7909L50.7341 32.2909C50.7558 32.6886 51.0846 33 51.4829 33H54.5171C54.9154 33 55.2443 32.6886 55.2659 32.2909L55.7296 23.7909C55.753 23.3613 55.4109 23 54.9807 23H51.0193C50.589 23 50.247 23.3613 50.2704 23.7909Z" fill="#4C6586"/>
</g>
<defs>
<clipPath id="clip0_4_39">
<rect width="36" height="32" fill="white" transform="translate(35 12)"/>
</clipPath>
</defs>
</svg>
