<svg width="83" height="60" viewBox="0 0 83 60" fill="none" xmlns="http://www.w3.org/2000/svg">
<path d="M82 30C82 46.0163 69.0163 59 53 59C36.9837 59 24 46.0163 24 30C24 13.9837 36.9837 1 53 1C69.0163 1 82 13.9837 82 30Z" fill="#E2E8EF" stroke="white" stroke-width="2"/>
<path d="M65.1875 16.875H57.6875C56.1348 16.875 54.875 18.1348 54.875 19.6875V27.1875C54.875 28.7402 56.1348 30 57.6875 30H62.375V33.75C62.375 35.8184 60.6934 37.5 58.625 37.5H58.1562C57.377 37.5 56.75 38.127 56.75 38.9062V41.7188C56.75 42.498 57.377 43.125 58.1562 43.125H58.625C63.8047 43.125 68 38.9297 68 33.75V19.6875C68 18.1348 66.7402 16.875 65.1875 16.875ZM48.3125 16.875H40.8125C39.2598 16.875 38 18.1348 38 19.6875V27.1875C38 28.7402 39.2598 30 40.8125 30H45.5V33.75C45.5 35.8184 43.8184 37.5 41.75 37.5H41.2812C40.502 37.5 39.875 38.127 39.875 38.9062V41.7188C39.875 42.498 40.502 43.125 41.2812 43.125H41.75C46.9297 43.125 51.125 38.9297 51.125 33.75V19.6875C51.125 18.1348 49.8652 16.875 48.3125 16.875Z" fill="#4C6586"/>
</svg>
