<svg width="83" height="60" viewBox="0 0 83 60" fill="none" xmlns="http://www.w3.org/2000/svg">
<path d="M82 30C82 46.0163 69.0163 59 53 59C36.9837 59 24 46.0163 24 30C24 13.9837 36.9837 1 53 1C69.0163 1 82 13.9837 82 30Z" fill="white" stroke="white" stroke-width="2"/>
<path d="M80.125 30C80.125 44.9808 67.9808 57.125 53 57.125C38.0192 57.125 25.875 44.9808 25.875 30C25.875 15.0192 38.0192 2.875 53 2.875C67.9808 2.875 80.125 15.0192 80.125 30ZM49.8625 44.3625L69.9875 24.2375C70.6708 23.5541 70.6708 22.446 69.9875 21.7626L67.5126 19.2878C66.8293 18.6043 65.7212 18.6043 65.0377 19.2878L48.625 35.7004L40.9623 28.0377C40.2789 27.3543 39.1708 27.3543 38.4874 28.0377L36.0125 30.5125C35.3292 31.1959 35.3292 32.304 36.0125 32.9874L47.3875 44.3624C48.071 45.0458 49.179 45.0458 49.8625 44.3625Z" fill="#4C6586"/>
</svg>
