<svg width="83" height="60" viewBox="0 0 83 60" fill="none" xmlns="http://www.w3.org/2000/svg">
<path d="M82 30C82 46.0163 69.0163 59 53 59C36.9837 59 24 46.0163 24 30C24 13.9837 36.9837 1 53 1C69.0163 1 82 13.9837 82 30Z" fill="#E2E8EF" stroke="white" stroke-width="2"/>
<line x1="48.7678" y1="23.2322" x2="61.7678" y2="36.2322" stroke="white" stroke-width="5"/>
<g clip-path="url(#clip0_4_59)">
<ellipse cx="62.5" cy="40" rx="4.5" ry="4" fill="white"/>
<path d="M37.8812 22.8812L40.7625 25.7625C41.0562 26.0562 41.5312 26.0562 41.825 25.7625L48.7625 18.825C49.0562 18.5312 49.0562 18.0562 48.7625 17.7625L45.8812 14.8812C44.7125 13.7125 42.8125 13.7125 41.6375 14.8812L37.8812 18.6375C36.7062 19.8062 36.7062 21.7062 37.8812 22.8812ZM51.2375 20.2375L67.65 36.65L68.975 44.2437C69.1562 45.2687 68.2625 46.1562 67.2375 45.9812L59.6437 44.65L43.2312 28.2375C42.9375 27.9437 42.9375 27.4687 43.2312 27.175L50.1687 20.2375C50.4687 19.9437 50.9437 19.9437 51.2375 20.2375ZM61.2437 35.2437C61.5875 34.9 61.5875 34.35 61.2437 34.0062L51.6187 24.3812C51.275 24.0375 50.725 24.0375 50.3812 24.3812C50.0375 24.725 50.0375 25.275 50.3812 25.6187L60.0062 35.2437C60.35 35.5875 60.9 35.5875 61.2437 35.2437ZM63.5 40.5H60.5V42.7687L64.5312 43.475L66.475 41.5312L65.7687 37.5H63.5V40.5Z" fill="#4C6586"/>
</g>
<defs>
<clipPath id="clip0_4_59">
<rect width="32" height="32" fill="white" transform="translate(37 14)"/>
</clipPath>
</defs>
</svg>
