<svg width="83" height="60" viewBox="0 0 83 60" fill="none" xmlns="http://www.w3.org/2000/svg">
<path d="M82 30C82 46.0163 69.0163 59 53 59C36.9837 59 24 46.0163 24 30C24 13.9837 36.9837 1 53 1C69.0163 1 82 13.9837 82 30Z" fill="#E2E8EF" stroke="white" stroke-width="2"/>
<path d="M63 17C63 16.4475 62.5525 16 62 16H58C57.4475 16 57 16.4475 57 17V20H63V17ZM40.9944 23.9994C40.8375 29.865 37.2163 31.1388 37 39.25V42C37 43.1044 37.8956 44 39 44H45C46.1044 44 47 43.1044 47 42V32H49V22H42.99C41.8881 22 41.0244 22.8981 40.9944 23.9994ZM65.0056 23.9994C64.9756 22.8981 64.1119 22 63.01 22H57V32H59V42C59 43.1044 59.8956 44 61 44H67C68.1044 44 69 43.1044 69 42V39.25C68.7837 31.1388 65.1625 29.865 65.0056 23.9994ZM48 16H44C43.4475 16 43 16.4475 43 17V20H49V17C49 16.4475 48.5525 16 48 16ZM51 32H55V22H51V32Z" fill="#4C6586"/>
</svg>
