<svg width="83" height="60" viewBox="0 0 83 60" fill="none" xmlns="http://www.w3.org/2000/svg">
<path d="M82 30C82 46.0163 69.0163 59 53 59C36.9837 59 24 46.0163 24 30C24 13.9837 36.9837 1 53 1C69.0163 1 82 13.9837 82 30Z" fill="white" stroke="white" stroke-width="2"/>
<path d="M53 2C37.5371 2 25 14.5416 25 30C25 45.4674 37.5371 58 53 58C68.4629 58 81 45.4674 81 30C81 14.5416 68.4629 2 53 2ZM53 14.4194C55.6189 14.4194 57.7419 16.5424 57.7419 19.1613C57.7419 21.7802 55.6189 23.9032 53 23.9032C50.3811 23.9032 48.2581 21.7802 48.2581 19.1613C48.2581 16.5424 50.3811 14.4194 53 14.4194ZM59.3226 43.0968C59.3226 43.845 58.716 44.4516 57.9677 44.4516H48.0323C47.284 44.4516 46.6774 43.845 46.6774 43.0968V40.3871C46.6774 39.6389 47.284 39.0323 48.0323 39.0323H49.3871V31.8065H48.0323C47.284 31.8065 46.6774 31.1998 46.6774 30.4516V27.7419C46.6774 26.9937 47.284 26.3871 48.0323 26.3871H55.2581C56.0063 26.3871 56.6129 26.9937 56.6129 27.7419V39.0323H57.9677C58.716 39.0323 59.3226 39.6389 59.3226 40.3871V43.0968Z" fill="#4C6586"/>
</svg>
