<svg width="83" height="60" viewBox="0 0 83 60" fill="none" xmlns="http://www.w3.org/2000/svg">
<path d="M82 30C82 46.0163 69.0163 59 53 59C36.9837 59 24 46.0163 24 30C24 13.9837 36.9837 1 53 1C69.0163 1 82 13.9837 82 30Z" fill="#E2E8EF" stroke="white" stroke-width="2"/>
<rect x="43" y="17" width="21" height="26" fill="white"/>
<path d="M67 36.5V15.5C67 14.6687 66.3313 14 65.5 14H45C41.6875 14 39 16.6875 39 20V40C39 43.3125 41.6875 46 45 46H65.5C66.3313 46 67 45.3313 67 44.5V43.5C67 43.0312 66.7813 42.6062 66.4438 42.3312C66.1813 41.3687 66.1813 38.625 66.4438 37.6625C66.7813 37.3938 67 36.9688 67 36.5ZM47 22.375C47 22.1688 47.1688 22 47.375 22H60.625C60.8312 22 61 22.1688 61 22.375V23.625C61 23.8312 60.8312 24 60.625 24H47.375C47.1688 24 47 23.8312 47 23.625V22.375ZM47 26.375C47 26.1688 47.1688 26 47.375 26H60.625C60.8312 26 61 26.1688 61 26.375V27.625C61 27.8312 60.8312 28 60.625 28H47.375C47.1688 28 47 27.8312 47 27.625V26.375ZM62.8375 42H45C43.8937 42 43 41.1063 43 40C43 38.9 43.9 38 45 38H62.8375C62.7187 39.0688 62.7187 40.9312 62.8375 42Z" fill="#4C6586"/>
</svg>
