<svg width="83" height="60" viewBox="0 0 83 60" fill="none" xmlns="http://www.w3.org/2000/svg">
<path d="M82 30C82 46.0163 69.0163 59 53 59C36.9837 59 24 46.0163 24 30C24 13.9837 36.9837 1 53 1C69.0163 1 82 13.9837 82 30Z" fill="#F3DE2C" stroke="white" stroke-width="2"/>
<g clip-path="url(#clip0_1_11)">
<ellipse cx="53" cy="22.5" rx="9" ry="5.5" fill="white"/>
<path d="M48.0037 42.3969C48.0044 42.79 48.1206 43.175 48.3387 43.5025L49.4069 45.1081C49.5893 45.3826 49.8368 45.6077 50.1273 45.7634C50.4178 45.9191 50.7423 46.0006 51.0719 46.0006H54.9288C55.2583 46.0006 55.5828 45.9191 55.8733 45.7634C56.1638 45.6077 56.4113 45.3826 56.5938 45.1081L57.6619 43.5025C57.8799 43.1749 57.9964 42.7904 57.9969 42.3969L57.9994 40H48.0006L48.0037 42.3969ZM42 25C42 27.7731 43.0281 30.3031 44.7225 32.2362C45.755 33.4144 47.37 35.8756 47.9856 37.9519C47.9881 37.9681 47.99 37.9844 47.9925 38.0006H58.0075C58.01 37.9844 58.0119 37.9687 58.0144 37.9519C58.63 35.8756 60.245 33.4144 61.2775 32.2362C62.9719 30.3031 64 27.7731 64 25C64 18.9131 59.0569 13.9812 52.9656 14C46.59 14.0194 42 19.1856 42 25ZM53 20C50.2431 20 48 22.2431 48 25C48 25.5525 47.5525 26 47 26C46.4475 26 46 25.5525 46 25C46 21.14 49.14 18 53 18C53.5525 18 54 18.4475 54 19C54 19.5525 53.5525 20 53 20Z" fill="#4C6586"/>
</g>
<defs>
<clipPath id="clip0_1_11">
<rect width="22" height="32" fill="white" transform="translate(42 14)"/>
</clipPath>
</defs>
</svg>
