<svg width="83" height="60" viewBox="0 0 83 60" fill="none" xmlns="http://www.w3.org/2000/svg">
<path d="M82 30C82 46.0163 69.0163 59 53 59C36.9837 59 24 46.0163 24 30C24 13.9837 36.9837 1 53 1C69.0163 1 82 13.9837 82 30Z" fill="#E2E8EF" stroke="white" stroke-width="2"/>
<rect x="43" y="22" width="21" height="14" fill="white"/>
<path d="M53 16C44.1625 16 37 21.8187 37 29C37 32.1 38.3375 34.9375 40.5625 37.1688C39.7812 40.3188 37.1688 43.125 37.1375 43.1562C37 43.3 36.9625 43.5125 37.0437 43.7C37.125 43.8875 37.3 44 37.5 44C41.6438 44 44.75 42.0125 46.2875 40.7875C48.3313 41.5563 50.6 42 53 42C61.8375 42 69 36.1813 69 29C69 21.8187 61.8375 16 53 16ZM45 31C43.8937 31 43 30.1063 43 29C43 27.8937 43.8937 27 45 27C46.1063 27 47 27.8937 47 29C47 30.1063 46.1063 31 45 31ZM53 31C51.8937 31 51 30.1063 51 29C51 27.8937 51.8937 27 53 27C54.1063 27 55 27.8937 55 29C55 30.1063 54.1063 31 53 31ZM61 31C59.8937 31 59 30.1063 59 29C59 27.8937 59.8937 27 61 27C62.1063 27 63 27.8937 63 29C63 30.1063 62.1063 31 61 31Z" fill="#4C6586"/>
</svg>
